<?xml version="1.0" encoding="utf-8"?>
<!-- Generator: Adobe Illustrator 17.1.0, SVG Export Plug-In . SVG Version: 6.00 Build 0)  -->
<!DOCTYPE svg PUBLIC "-//W3C//DTD SVG 1.1//EN" "http://www.w3.org/Graphics/SVG/1.1/DTD/svg11.dtd">
<svg version="1.1" id="Layer_1" xmlns="http://www.w3.org/2000/svg" xmlns:xlink="http://www.w3.org/1999/xlink" x="0px" y="0px"
	 viewBox="0 0 1222.3 267.5" enable-background="new 0 0 1222.3 267.5" xml:space="preserve">
<g>
	<path d="M9.7,126.3h396.1l2.5-0.1c0.2,0,0.5,0,0.7,0l0.1,0c3.4-0.2,6-1.3,8-3.5c6-6.6,6.1-20.8,5.7-25.3l0-0.7V31.9
		c0-9.6,3.1-17.4,9.2-23c10.5-9.7,26.2-8.9,27.7-8.8h303.5c1.6-0.1,17.2-0.9,27.7,8.8c6.1,5.6,9.2,13.4,9.2,23l0,65l0,0.6
		c-0.4,4.5-0.3,18.7,5.7,25.3c2,2.2,4.6,3.4,8,3.5l0.1,0c0.2,0,0.5,0,0.7,0h2.5v0.1h396.1v5H812.2v-0.2c-4.1-0.5-7.4-2.2-10-5
		c-8.4-9.3-7.1-27.8-7-29.1l0-0.4V31.9c0-8.2-2.6-14.7-7.6-19.3C778.3,4,764.1,5,763.5,5.1l-0.2,0H459.5l-0.1,0
		c-0.6,0-14.8-1.1-24.1,7.5c-5,4.6-7.6,11.2-7.6,19.3v64.8l0,0.4c0.1,1.3,1.4,19.8-7,29.1c-2.6,2.9-6,4.5-10,5v0.1l-2.5,0.1H9.7
		V126.3z"/>
</g>
<g>
	<path d="M1213.2,141.3H814.7c-0.2,0-0.5,0-0.7,0l-0.1,0c-3.4,0.2-6,1.3-8,3.5c-6,6.5-6.1,20.8-5.7,25.3l0,0.5v65.1
		c0,9.6-3.1,17.4-9.2,23c-8.7,8-20.8,8.9-25.6,8.9c-1.1,0-1.9,0-2.2-0.1H459.7c-0.3,0-1.1,0.1-2.2,0.1c-4.8,0-16.9-0.9-25.6-8.9
		c-6.1-5.6-9.2-13.4-9.2-23l0-65.3l0-0.2c0.4-4.5,0.2-18.8-5.7-25.3c-2-2.2-4.6-3.3-8-3.5l-0.1,0c-0.2,0-0.4,0-0.7,0H9.7v-5h398.6
		c0.2,0,0.4,0,0.5,0l0.3,0l0.1,0c4.8,0.2,8.7,1.9,11.6,5.1c8.7,9.5,7,29,7,29.2l0,0.1v65c0,8.2,2.6,14.7,7.6,19.3
		c7.4,6.8,18,7.5,22.2,7.5c1.2,0,1.9-0.1,1.9-0.1l0.2,0h303.8l0.1,0c0,0,0.7,0.1,1.9,0.1c4.2,0,14.8-0.7,22.2-7.5
		c5-4.6,7.6-11.2,7.6-19.3l0-65.1c0-0.2-1.7-19.7,7-29.2c2.9-3.2,6.8-4.9,11.6-5.1l0.1,0l0.3,0c0.2,0,0.4,0,0.5,0h398.6V141.3z"/>
</g>
<g>
	<path d="M506.5,186.1c-0.4-0.4-0.9-0.7-1.5-0.8s-1.3-0.2-2.1-0.2h-3v11.8h0.6h2.4c1.3,0,2.2-0.2,2.7-0.5c0.5-0.3,0.8-0.5,0.9-0.7
		c0.7-1,1.1-2.5,1.1-4.8c0-1.3-0.1-2.3-0.3-3C507.1,187.1,506.8,186.5,506.5,186.1z"/>
	<rect x="604.2" y="56" width="3" height="96.3"/>
	<polygon points="546,56 543.4,56 543.4,152.3 546,152.3 546,105.9 579,105.9 579,152.3 582,152.3 582,56 579,56 579,103.3 
		546,103.3 	"/>
	<path d="M629.1,56v96.3h3V64.9c11.8,29.2,23.2,58.3,35,87.4h2.3V56h-2.6v87.4L631.6,56H629.1z"/>
	<path d="M598.9,185.8c-0.4-0.4-0.9-0.6-1.4-0.6c-0.5-0.1-0.9-0.1-1.2-0.1c-0.4,0-0.8,0-1.2,0.1c-0.5,0.1-0.9,0.3-1.4,0.6
		c-0.4,0.4-0.8,0.9-1.1,1.7c-0.3,0.8-0.4,1.9-0.4,3.4v16.2c0,1.5,0.1,2.6,0.4,3.4c0.3,0.8,0.7,1.4,1.1,1.7c0.4,0.4,0.9,0.6,1.4,0.6
		c0.5,0.1,0.9,0.1,1.2,0.1c0.3,0,0.7,0,1.2-0.1c0.5-0.1,0.9-0.3,1.4-0.6c0.4-0.4,0.8-0.9,1.1-1.7s0.4-1.9,0.4-3.4v-16.2
		c0-1.5-0.1-2.6-0.4-3.4S599.4,186.2,598.9,185.8z"/>
	<path d="M576.8,186.1c-0.4-0.4-0.9-0.7-1.5-0.8s-1.3-0.2-2.1-0.2h-3v11.5h3c1.3,0,2.2-0.2,2.7-0.5c0.5-0.3,0.8-0.5,0.9-0.7
		c0.7-0.8,1.1-2.3,1.1-4.6c0-1.2-0.1-2.2-0.3-3C577.4,187.1,577.1,186.5,576.8,186.1z"/>
	<path d="M796.6,131.1c-10.4-11.4-9.1-32-8.9-34.6V31.9c0-6.1-1.7-10.6-5.1-13.8c-6.8-6.3-18.3-5.5-18.4-5.5H458.8
		c-0.1,0-11.6-0.8-18.4,5.5c-3.5,3.2-5.1,7.7-5.1,13.8v64.6c0.2,2.6,1.5,23.2-8.9,34.6c-0.9,1-1.8,1.8-2.8,2.6
		c1,0.8,1.9,1.6,2.8,2.6c10.4,11.4,9.1,32,8.9,34.6v64.6c0,6.1,1.7,10.6,5.2,13.8c6.8,6.2,18.3,5.5,18.4,5.5h305.3
		c0.1,0,11.6,0.7,18.4-5.5c3.5-3.2,5.2-7.7,5.2-13.8V171c-0.2-2.7-1.5-23.2,8.9-34.6c0.9-1,1.8-1.8,2.8-2.6
		C798.4,133,797.5,132.1,796.6,131.1z M688.1,51.6h11.4v41.5l22.9-41.5h13.5l-27.7,49l29.9,56h-13.2L701.2,112l-1.7,3v41.7h-11.4
		V51.6z M482.9,51.6h46.2V63h-17.4v93.5h-11.4V63h-17.4V51.6z M512.6,217.8h-4.8v-11.1c0-3.3-1.6-4.9-4.8-4.9h-2.4h-0.6v16.1h-4.8
		v-37.6h7.8c3.2,0,5.7,1,7.3,2.9c1.5,1.7,2.2,4.4,2.2,7.9c0,3.5-0.7,6.1-2.2,7.9c-0.1,0.1-0.1,0.2-0.2,0.3c-0.1,0.1-0.2,0.2-0.3,0.3
		c0.9,0.9,1.6,1.9,2.1,3.2c0.5,1.2,0.7,2.6,0.7,4.2V217.8z M535,185.1h-10.8v11.6H535v4.8h-10.8v11.6H535v4.8h-15.6v-37.6H535V185.1
		z M559.4,193.4h-4.8V191c0-1.5-0.1-2.6-0.4-3.4c-0.3-0.8-0.7-1.4-1.1-1.8c-0.4-0.4-0.9-0.6-1.4-0.6c-0.5-0.1-0.9-0.1-1.2-0.1
		c-1,0-1.8,0.2-2.3,0.7c-0.5,0.5-1,1-1.2,1.7c-0.3,0.7-0.5,1.3-0.5,2c-0.1,0.7-0.1,1.2-0.1,1.5c0,0.9,0.1,1.6,0.4,2.3
		c0.3,0.6,0.6,1.2,1.1,1.6c0.4,0.5,0.9,0.9,1.5,1.2c0.6,0.3,1.1,0.6,1.8,0.8l0.8,0.4c0.5,0.2,1.1,0.5,2,0.9c0.8,0.4,1.7,1,2.5,1.8
		c2.1,1.9,3.2,4.4,3.2,7.5c0,2.9-0.7,5.3-2.1,7.2c-1.7,2.1-3.9,3.2-6.8,3.2c-3,0-5.3-1-6.8-2.9c-1.5-1.8-2.2-4.4-2.2-7.8v-2.4h4.8
		v2.4c0,2.2,0.4,3.8,1.2,4.7c0.2,0.2,0.5,0.5,0.9,0.7c0.4,0.3,1.1,0.4,2.1,0.4c0.9,0,1.6-0.2,2.2-0.6c0.5-0.4,1-0.9,1.2-1.4
		c0.3-0.6,0.5-1.2,0.6-1.8s0.1-1.2,0.1-1.8c0-0.9-0.1-1.6-0.4-2.2c-0.3-0.6-0.6-1.1-1.1-1.6c-0.4-0.4-0.9-0.8-1.5-1.1
		c-0.5-0.3-1.1-0.6-1.6-0.8l-0.9-0.4c-0.5-0.2-1.2-0.6-2.1-1c-0.8-0.4-1.7-1-2.5-1.8c-2-2-3.1-4.5-3.1-7.5c0-1.6,0.2-3.1,0.6-4.4
		c0.4-1.3,1-2.5,1.8-3.4c0.8-0.9,1.8-1.7,2.9-2.2c1.1-0.5,2.3-0.8,3.6-0.8c1.8,0,3.3,0.3,4.4,1c1.1,0.6,1.9,1.3,2.4,2
		c1.5,1.9,2.2,4.5,2.2,7.8V193.4z M580.5,198.6c-1.6,1.9-4.1,2.9-7.3,2.9h-3v16.4h-4.8v-37.6h7.8c3.2,0,5.6,0.9,7.3,2.8
		c1.5,1.8,2.3,4.4,2.3,7.8C582.8,194.2,582,196.8,580.5,198.6z M586.2,156.7h-11.4v-46.4h-24.4v46.4H539V51.8h11.4v47.1h24.4V51.8
		h11.4V156.7z M605.2,207.1c0,3.3-0.7,5.9-2.1,7.8c-0.5,0.7-1.4,1.3-2.4,2c-1.1,0.6-2.5,1-4.4,1c-1.8,0-3.2-0.3-4.3-1
		s-1.9-1.3-2.4-2c-1.4-1.8-2.1-4.4-2.1-7.8v-16.2c0-3.3,0.7-5.9,2.1-7.8c0.3-0.3,0.6-0.7,1-1c0.4-0.3,0.9-0.7,1.4-0.9
		c0.6-0.3,1.2-0.5,1.9-0.7c0.7-0.2,1.5-0.3,2.4-0.3c1.8,0,3.3,0.3,4.4,1c1.1,0.6,1.9,1.3,2.4,2c1.4,1.8,2.1,4.4,2.1,7.8V207.1z
		 M611.4,156.7H600V51.8h11.4V156.7z M630.2,217.8h-4.1l-9.2-22.7v22.7h-4.8v-37.6h4l9.2,22.7v-22.7h4.8V217.8z M654.8,193.4H650
		V191c0-1.5-0.1-2.6-0.4-3.4c-0.3-0.8-0.7-1.4-1.1-1.8c-0.4-0.4-0.9-0.6-1.4-0.6c-0.5-0.1-0.9-0.1-1.2-0.1c-1,0-1.8,0.2-2.3,0.7
		c-0.5,0.5-1,1-1.2,1.7c-0.3,0.7-0.5,1.3-0.5,2c-0.1,0.7-0.1,1.2-0.1,1.5c0,0.9,0.1,1.6,0.4,2.3c0.3,0.6,0.6,1.2,1.1,1.6
		c0.4,0.5,0.9,0.9,1.5,1.2c0.6,0.3,1.1,0.6,1.8,0.8l0.8,0.4c0.5,0.2,1.1,0.5,2,0.9c0.8,0.4,1.7,1,2.5,1.8c2.1,1.9,3.2,4.4,3.2,7.5
		c0,2.9-0.7,5.3-2.1,7.2c-1.7,2.1-3.9,3.2-6.8,3.2c-3,0-5.3-1-6.8-2.9c-1.5-1.8-2.2-4.4-2.2-7.8v-2.4h4.8v2.4c0,2.2,0.4,3.8,1.2,4.7
		c0.2,0.2,0.5,0.5,0.9,0.7c0.4,0.3,1.1,0.4,2.1,0.4c0.9,0,1.6-0.2,2.2-0.6c0.5-0.4,1-0.9,1.2-1.4c0.3-0.6,0.5-1.2,0.6-1.8
		s0.1-1.2,0.1-1.8c0-0.9-0.1-1.6-0.4-2.2c-0.3-0.6-0.6-1.1-1.1-1.6c-0.4-0.4-0.9-0.8-1.5-1.1c-0.5-0.3-1.1-0.6-1.6-0.8l-0.9-0.4
		c-0.5-0.2-1.2-0.6-2.1-1c-0.8-0.4-1.7-1-2.5-1.8c-2-2-3.1-4.5-3.1-7.5c0-1.6,0.2-3.1,0.6-4.4c0.4-1.3,1-2.5,1.8-3.4
		c0.8-0.9,1.8-1.7,2.9-2.2c1.1-0.5,2.3-0.8,3.6-0.8c1.8,0,3.3,0.3,4.4,1c1.1,0.6,1.9,1.3,2.4,2c1.5,1.9,2.2,4.5,2.2,7.8V193.4z
		 M667.5,217.9h-4.8v-37.6h4.8V217.9z M673.8,156.7h-9.5c-6.1-14.6-12.9-31.9-28-69.4v69.4h-11.4V51.8h9.5l28,69.4V51.8h11.4V156.7z
		 M689.9,199.6c1.5,1.8,2.2,4.4,2.2,7.8c0,3.4-0.7,6-2.2,7.7c-1.5,1.9-3.9,2.9-7,2.9h-2.4h-4.8v-4.8v-32.8h7.2c3.2,0,5.5,1,7,2.9
		c1.5,1.7,2.2,4.3,2.2,7.7c0,3.4-0.7,6-2.2,7.8c-0.1,0.1-0.2,0.3-0.4,0.5C689.7,199.2,689.8,199.4,689.9,199.6z M715.2,217.8h-16.4
		v-37.6h4.8V213h11.6V217.8z M727.9,199.7v18.2h-4.8v-18.2l-10.7-19.4h5.5l7.6,13.8l7.6-13.8h5.5L727.9,199.7z"/>
	<polygon points="504.5,152.3 507.5,152.3 507.5,58.8 524.9,58.8 524.9,56 487.2,56 487.2,58.8 504.5,58.8 	"/>
	<path d="M686,186c-0.4-0.4-0.9-0.6-1.4-0.7c-0.5-0.1-1.1-0.2-1.7-0.2h-2.4v11.6h2.4c1.1,0,1.9-0.1,2.3-0.4c0.5-0.3,0.8-0.5,1-0.7
		c0.7-0.8,1.1-2.4,1.1-4.7c0-1.3-0.1-2.4-0.3-3.1C686.7,186.9,686.4,186.4,686,186z"/>
	<polygon points="727.4,152.3 730.7,152.3 703.3,100.5 728.2,56 724.8,56 695.2,108.9 695.2,56 692.3,56 692.3,152.3 695.2,152.3 
		695.2,113.9 701.5,103.6 	"/>
	<path d="M685.9,202.3c-0.4-0.4-0.8-0.6-1.4-0.7c-0.5-0.1-1.1-0.2-1.7-0.2h-2.4v11.6h2.4c0.6,0,1.2-0.1,1.7-0.2
		c0.5-0.1,1-0.3,1.4-0.7c0.4-0.4,0.7-1,0.9-1.7c0.2-0.8,0.3-1.8,0.3-3.1c0-1.4-0.1-2.4-0.4-3.2C686.6,203.3,686.3,202.7,685.9,202.3
		z"/>
</g>
<path d="M1215.8,126.3c1.1,1.9,2.3,3.6,3.8,5.2c0.9,1,1.8,1.8,2.8,2.6c-1,0.8-1.9,1.6-2.8,2.6c-1.2,1.3-2.3,3-3.2,4.6h-3.7v-5
	c0,0,0.9-1.5,2.1-2.5c-1.2-1-2.1-2.5-2.1-2.5v-5H1215.8z"/>
<path d="M6.6,126.3c-1.1,1.9-2.3,3.6-3.8,5.2c-0.9,1-1.8,1.8-2.8,2.6c1,0.8,1.9,1.6,2.8,2.6c1.2,1.3,2.3,3,3.2,4.6h3.7v-5
	c0,0-0.9-1.5-2.1-2.5c1.2-1,2.1-2.5,2.1-2.5v-5H6.6z"/>
</svg>
