<?xml version="1.0" encoding="UTF-8" standalone="no"?>
<svg width="413px" height="268px" viewBox="0 0 413 268" version="1.1" xmlns="http://www.w3.org/2000/svg" xmlns:xlink="http://www.w3.org/1999/xlink" xmlns:sketch="http://www.bohemiancoding.com/sketch/ns">
    <!-- Generator: Sketch 3.0.3 (7891) - http://www.bohemiancoding.com/sketch -->
    <title>Slice 1</title>
    <desc>Created with Sketch.</desc>
    <defs></defs>
    <g id="Page-1" stroke="none" stroke-width="1" fill="none" fill-rule="evenodd" sketch:type="MSPage">
        <g id="ThinkResponsibly-04" sketch:type="MSLayerGroup" fill="#000000">
            <g id="Group" transform="translate(19.000000, 13.000000)" sketch:type="MSShapeGroup">
                <path d="M82.5,173.1 C82.1,172.7 81.6,172.4 81,172.3 C80.4,172.2 79.7,172.1 78.9,172.1 L75.9,172.1 L75.9,183.9 L76.5,183.9 L78.9,183.9 C80.2,183.9 81.1,183.7 81.6,183.4 C82.1,183.1 82.4,182.9 82.5,182.7 C83.2,181.7 83.6,180.2 83.6,177.9 C83.6,176.6 83.5,175.6 83.3,174.9 C83.1,174.1 82.8,173.5 82.5,173.1 L82.5,173.1 Z" id="Shape"></path>
                <rect id="Rectangle-path" x="180" y="43" width="3" height="96.3"></rect>
                <path d="M122,43 L119.4,43 L119.4,139.3 L122,139.3 L122,92.9 L155,92.9 L155,139.3 L158,139.3 L158,43 L155,43 L155,90.3 L122,90.3 L122,43 Z" id="Shape"></path>
                <path d="M205.1,43 L205.1,139.3 L208.1,139.3 L208.1,51.9 C219.9,81.1 231.3,110.2 243.1,139.3 L245.4,139.3 L245.4,43 L242.8,43 L242.8,130.4 L207.6,43 L205.1,43 L205.1,43 Z" id="Shape"></path>
                <path d="M174.9,172.8 C174.5,172.4 174,172.2 173.5,172.2 C173,172.1 172.6,172.1 172.3,172.1 C171.9,172.1 171.5,172.1 171.1,172.2 C170.6,172.3 170.2,172.5 169.7,172.8 C169.3,173.2 168.9,173.7 168.6,174.5 C168.3,175.3 168.2,176.4 168.2,177.9 L168.2,194.1 C168.2,195.6 168.3,196.7 168.6,197.5 C168.9,198.3 169.3,198.9 169.7,199.2 C170.1,199.6 170.6,199.8 171.1,199.8 C171.6,199.9 172,199.9 172.3,199.9 C172.6,199.9 173,199.9 173.5,199.8 C174,199.7 174.4,199.5 174.9,199.2 C175.3,198.8 175.7,198.3 176,197.5 C176.3,196.7 176.4,195.6 176.4,194.1 L176.4,177.9 C176.4,176.4 176.3,175.3 176,174.5 C175.7,173.7 175.4,173.2 174.9,172.8 L174.9,172.8 Z" id="Shape"></path>
                <path d="M152.8,173.1 C152.4,172.7 151.9,172.4 151.3,172.3 C150.7,172.2 150,172.1 149.2,172.1 L146.2,172.1 L146.2,183.6 L149.2,183.6 C150.5,183.6 151.4,183.4 151.9,183.1 C152.4,182.8 152.7,182.6 152.8,182.4 C153.5,181.6 153.9,180.1 153.9,177.8 C153.9,176.6 153.8,175.6 153.6,174.8 C153.4,174.1 153.1,173.5 152.8,173.1 L152.8,173.1 Z" id="Shape"></path>
                <path d="M372.6,118.1 C362.2,106.7 363.5,86.1 363.7,83.5 L363.7,18.9 C363.7,12.8 362,8.3 358.6,5.1 C351.8,-1.2 340.3,-0.4 340.2,-0.4 L34.8,-0.4 C34.7,-0.4 23.2,-1.2 16.4,5.1 C12.9,8.3 11.3,12.8 11.3,18.9 L11.3,83.5 C11.5,86.1 12.8,106.7 2.4,118.1 C1.5,119.1 0.6,119.9 -0.4,120.7 C0.6,121.5 1.5,122.3 2.4,123.3 C12.8,134.7 11.5,155.3 11.3,157.9 L11.3,222.5 C11.3,228.6 13,233.1 16.5,236.3 C23.3,242.5 34.8,241.8 34.9,241.8 L340.2,241.8 C340.3,241.8 351.8,242.5 358.6,236.3 C362.1,233.1 363.8,228.6 363.8,222.5 L363.8,158 C363.6,155.3 362.3,134.8 372.7,123.4 C373.6,122.4 374.5,121.6 375.5,120.8 C374.4,120 373.5,119.1 372.6,118.1 L372.6,118.1 Z M264.1,38.6 L275.5,38.6 L275.5,80.1 L298.4,38.6 L311.9,38.6 L284.2,87.6 L314.1,143.6 L300.9,143.6 L277.1,99 L275.4,102 L275.4,143.7 L264,143.7 L264,38.6 L264.1,38.6 Z M58.9,38.6 L105.1,38.6 L105.1,50 L87.7,50 L87.7,143.5 L76.3,143.5 L76.3,50 L58.9,50 L58.9,38.6 L58.9,38.6 Z M88.5,204.8 L83.7,204.8 L83.7,193.7 C83.7,190.4 82.1,188.8 78.9,188.8 L76.5,188.8 L75.9,188.8 L75.9,204.9 L71.1,204.9 L71.1,167.3 L78.9,167.3 C82.1,167.3 84.6,168.3 86.2,170.2 C87.7,171.9 88.4,174.6 88.4,178.1 C88.4,181.6 87.7,184.2 86.2,186 C86.1,186.1 86.1,186.2 86,186.3 C85.9,186.4 85.8,186.5 85.7,186.6 C86.6,187.5 87.3,188.5 87.8,189.8 C88.3,191 88.5,192.4 88.5,194 L88.5,204.8 L88.5,204.8 Z M111,172.1 L100.2,172.1 L100.2,183.7 L111,183.7 L111,188.5 L100.2,188.5 L100.2,200.1 L111,200.1 L111,204.9 L95.4,204.9 L95.4,167.3 L111,167.3 L111,172.1 L111,172.1 Z M135.4,180.4 L130.6,180.4 L130.6,178 C130.6,176.5 130.5,175.4 130.2,174.6 C129.9,173.8 129.5,173.2 129.1,172.8 C128.7,172.4 128.2,172.2 127.7,172.2 C127.2,172.1 126.8,172.1 126.5,172.1 C125.5,172.1 124.7,172.3 124.2,172.8 C123.7,173.3 123.2,173.8 123,174.5 C122.7,175.2 122.5,175.8 122.5,176.5 C122.4,177.2 122.4,177.7 122.4,178 C122.4,178.9 122.5,179.6 122.8,180.3 C123.1,180.9 123.4,181.5 123.9,181.9 C124.3,182.4 124.8,182.8 125.4,183.1 C126,183.4 126.5,183.7 127.2,183.9 L128,184.3 C128.5,184.5 129.1,184.8 130,185.2 C130.8,185.6 131.7,186.2 132.5,187 C134.6,188.9 135.7,191.4 135.7,194.5 C135.7,197.4 135,199.8 133.6,201.7 C131.9,203.8 129.7,204.9 126.8,204.9 C123.8,204.9 121.5,203.9 120,202 C118.5,200.2 117.8,197.6 117.8,194.2 L117.8,191.8 L122.6,191.8 L122.6,194.2 C122.6,196.4 123,198 123.8,198.9 C124,199.1 124.3,199.4 124.7,199.6 C125.1,199.9 125.8,200 126.8,200 C127.7,200 128.4,199.8 129,199.4 C129.5,199 130,198.5 130.2,198 C130.5,197.4 130.7,196.8 130.8,196.2 C130.9,195.6 130.9,195 130.9,194.4 C130.9,193.5 130.8,192.8 130.5,192.2 C130.2,191.6 129.9,191.1 129.4,190.6 C129,190.2 128.5,189.8 127.9,189.5 C127.4,189.2 126.8,188.9 126.3,188.7 L125.4,188.3 C124.9,188.1 124.2,187.7 123.3,187.3 C122.5,186.9 121.6,186.3 120.8,185.5 C118.8,183.5 117.7,181 117.7,178 C117.7,176.4 117.9,174.9 118.3,173.6 C118.7,172.3 119.3,171.1 120.1,170.2 C120.9,169.3 121.9,168.5 123,168 C124.1,167.5 125.3,167.2 126.6,167.2 C128.4,167.2 129.9,167.5 131,168.2 C132.1,168.8 132.9,169.5 133.4,170.2 C134.9,172.1 135.6,174.7 135.6,178 L135.6,180.4 L135.4,180.4 Z M156.5,185.6 C154.9,187.5 152.4,188.5 149.2,188.5 L146.2,188.5 L146.2,204.9 L141.4,204.9 L141.4,167.3 L149.2,167.3 C152.4,167.3 154.8,168.2 156.5,170.1 C158,171.9 158.8,174.5 158.8,177.9 C158.8,181.2 158,183.8 156.5,185.6 L156.5,185.6 Z M162.2,143.7 L150.8,143.7 L150.8,97.3 L126.4,97.3 L126.4,143.7 L115,143.7 L115,38.8 L126.4,38.8 L126.4,85.9 L150.8,85.9 L150.8,38.8 L162.2,38.8 L162.2,143.7 L162.2,143.7 Z M181.2,194.1 C181.2,197.4 180.5,200 179.1,201.9 C178.6,202.6 177.7,203.2 176.7,203.9 C175.6,204.5 174.2,204.9 172.3,204.9 C170.5,204.9 169.1,204.6 168,203.9 C166.9,203.2 166.1,202.6 165.6,201.9 C164.2,200.1 163.5,197.5 163.5,194.1 L163.5,177.9 C163.5,174.6 164.2,172 165.6,170.1 C165.9,169.8 166.2,169.4 166.6,169.1 C167,168.8 167.5,168.4 168,168.2 C168.6,167.9 169.2,167.7 169.9,167.5 C170.6,167.3 171.4,167.2 172.3,167.2 C174.1,167.2 175.6,167.5 176.7,168.2 C177.8,168.8 178.6,169.5 179.1,170.2 C180.5,172 181.2,174.6 181.2,178 L181.2,194.1 L181.2,194.1 Z M187.4,143.7 L176,143.7 L176,38.8 L187.4,38.8 L187.4,143.7 L187.4,143.7 Z M206.2,204.8 L202.1,204.8 L192.9,182.1 L192.9,204.8 L188.1,204.8 L188.1,167.2 L192.1,167.2 L201.3,189.9 L201.3,167.2 L206.1,167.2 L206.1,204.8 L206.2,204.8 Z M230.8,180.4 L226,180.4 L226,178 C226,176.5 225.9,175.4 225.6,174.6 C225.3,173.8 224.9,173.2 224.5,172.8 C224.1,172.4 223.6,172.2 223.1,172.2 C222.6,172.1 222.2,172.1 221.9,172.1 C220.9,172.1 220.1,172.3 219.6,172.8 C219.1,173.3 218.6,173.8 218.4,174.5 C218.1,175.2 217.9,175.8 217.9,176.5 C217.8,177.2 217.8,177.7 217.8,178 C217.8,178.9 217.9,179.6 218.2,180.3 C218.5,180.9 218.8,181.5 219.3,181.9 C219.7,182.4 220.2,182.8 220.8,183.1 C221.4,183.4 221.9,183.7 222.6,183.9 L223.4,184.3 C223.9,184.5 224.5,184.8 225.4,185.2 C226.2,185.6 227.1,186.2 227.9,187 C230,188.9 231.1,191.4 231.1,194.5 C231.1,197.4 230.4,199.8 229,201.7 C227.3,203.8 225.1,204.9 222.2,204.9 C219.2,204.9 216.9,203.9 215.4,202 C213.9,200.2 213.2,197.6 213.2,194.2 L213.2,191.8 L218,191.8 L218,194.2 C218,196.4 218.4,198 219.2,198.9 C219.4,199.1 219.7,199.4 220.1,199.6 C220.5,199.9 221.2,200 222.2,200 C223.1,200 223.8,199.8 224.4,199.4 C224.9,199 225.4,198.5 225.6,198 C225.9,197.4 226.1,196.8 226.2,196.2 C226.3,195.6 226.3,195 226.3,194.4 C226.3,193.5 226.2,192.8 225.9,192.2 C225.6,191.6 225.3,191.1 224.8,190.6 C224.4,190.2 223.9,189.8 223.3,189.5 C222.8,189.2 222.2,188.9 221.7,188.7 L220.8,188.3 C220.3,188.1 219.6,187.7 218.7,187.3 C217.9,186.9 217,186.3 216.2,185.5 C214.2,183.5 213.1,181 213.1,178 C213.1,176.4 213.3,174.9 213.7,173.6 C214.1,172.3 214.7,171.1 215.5,170.2 C216.3,169.3 217.3,168.5 218.4,168 C219.5,167.5 220.7,167.2 222,167.2 C223.8,167.2 225.3,167.5 226.4,168.2 C227.5,168.8 228.3,169.5 228.8,170.2 C230.3,172.1 231,174.7 231,178 L231,180.4 L230.8,180.4 Z M243.5,204.9 L238.7,204.9 L238.7,167.3 L243.5,167.3 L243.5,204.9 L243.5,204.9 Z M249.8,143.7 L240.3,143.7 C234.2,129.1 227.4,111.8 212.3,74.3 L212.3,143.7 L200.9,143.7 L200.9,38.8 L210.4,38.8 L238.4,108.2 L238.4,38.8 L249.8,38.8 L249.8,143.7 L249.8,143.7 Z M265.9,186.6 C267.4,188.4 268.1,191 268.1,194.4 C268.1,197.8 267.4,200.4 265.9,202.1 C264.4,204 262,205 258.9,205 L256.5,205 L251.7,205 L251.7,200.2 L251.7,167.4 L258.9,167.4 C262.1,167.4 264.4,168.4 265.9,170.3 C267.4,172 268.1,174.6 268.1,178 C268.1,181.4 267.4,184 265.9,185.8 C265.8,185.9 265.7,186.1 265.5,186.3 C265.7,186.2 265.8,186.4 265.9,186.6 L265.9,186.6 Z M291.2,204.8 L274.8,204.8 L274.8,167.2 L279.6,167.2 L279.6,200 L291.2,200 L291.2,204.8 L291.2,204.8 Z M303.9,186.7 L303.9,204.9 L299.1,204.9 L299.1,186.7 L288.4,167.3 L293.9,167.3 L301.5,181.1 L309.1,167.3 L314.6,167.3 L303.9,186.7 L303.9,186.7 Z" id="Shape"></path>
                <path d="M80.5,139.3 L83.5,139.3 L83.5,45.8 L100.9,45.8 L100.9,43 L63.2,43 L63.2,45.8 L80.5,45.8 L80.5,139.3 Z" id="Shape"></path>
                <path d="M262,173 C261.6,172.6 261.1,172.4 260.6,172.3 C260.1,172.2 259.5,172.1 258.9,172.1 L256.5,172.1 L256.5,183.7 L258.9,183.7 C260,183.7 260.8,183.6 261.2,183.3 C261.7,183 262,182.8 262.2,182.6 C262.9,181.8 263.3,180.2 263.3,177.9 C263.3,176.6 263.2,175.5 263,174.8 C262.7,173.9 262.4,173.4 262,173 L262,173 Z" id="Shape"></path>
                <path d="M303.4,139.3 L306.7,139.3 L279.3,87.5 L304.2,43 L300.8,43 L271.2,95.9 L271.2,43 L268.3,43 L268.3,139.3 L271.2,139.3 L271.2,100.9 L277.5,90.6 L303.4,139.3 Z" id="Shape"></path>
                <path d="M261.9,189.3 C261.5,188.9 261.1,188.7 260.5,188.6 C260,188.5 259.4,188.4 258.8,188.4 L256.4,188.4 L256.4,200 L258.8,200 C259.4,200 260,199.9 260.5,199.8 C261,199.7 261.5,199.5 261.9,199.1 C262.3,198.7 262.6,198.1 262.8,197.4 C263,196.6 263.1,195.6 263.1,194.3 C263.1,192.9 263,191.9 262.7,191.1 C262.6,190.3 262.3,189.7 261.9,189.3 L261.9,189.3 Z" id="Shape"></path>
            </g>
            <path d="M409.7,126.2 L409,126.2 L408.9,126.2 C405.5,126 402.9,124.9 400.9,122.7 C394.9,116.1 394.8,101.9 395.2,97.4 L395.2,96.8 L395.2,31.8 C395.2,22.2 392.1,14.4 386,8.8 C375.5,-0.9 359.8,-0.1 358.3,1.77635684e-14 L54.7,1.77635684e-14 C53.1,7.10542736e-15 37.5,-0.8 27,8.8 C20.9,14.4 17.8,22.2 17.8,31.8 L17.8,96.7 L17.8,97.4 C18.2,101.9 18.1,116.1 12.1,122.7 C10.1,124.9 7.5,126.1 4.1,126.2 L4,126.2 L3.3,126.2 L0,126.3 L0,131.3 L3.2,131.3 L5.7,131.2 L5.7,131.1 C9.8,130.6 13.1,128.9 15.7,126.1 C24.1,116.8 22.8,98.3 22.7,97 L22.7,96.6 L22.7,31.9 C22.7,23.7 25.3,17.2 30.3,12.6 C39.6,4 53.8,5 54.4,5.1 L54.5,5.1 L358.3,5.1 L358.5,5.1 C359.1,5.1 373.3,4 382.6,12.6 C387.6,17.2 390.2,23.8 390.2,31.9 L390.2,96.7 L390.2,97.1 C390.1,98.4 388.8,116.9 397.2,126.2 C399.8,129.1 403.2,130.7 407.2,131.2 L407.2,131.4 L407.2,136.5 C403.1,137 399.8,138.6 397.2,141.5 C388.5,151 390.2,170.5 390.2,170.7 L390.2,235.8 C390.2,244 387.6,250.5 382.6,255.1 C375.2,261.9 364.6,262.6 360.4,262.6 C359.2,262.6 358.5,262.5 358.5,262.5 L358.4,262.5 L54.6,262.5 L54.4,262.5 C54.4,262.5 53.7,262.6 52.5,262.6 C48.3,262.6 37.7,261.9 30.3,255.1 C25.3,250.5 22.7,243.9 22.7,235.8 L22.7,170.8 L22.7,170.7 C22.7,170.5 24.4,151.1 15.7,141.5 C12.8,138.3 8.9,136.6 4.1,136.4 L4,136.4 L3.7,136.4 L3.2,136.4 L0,136.4 L0,141.4 L3.2,141.4 L3.9,141.4 L4,141.4 C7.4,141.6 10,142.7 12,144.9 C18,151.4 18.1,165.7 17.7,170.2 L17.7,170.4 L17.7,235.7 C17.7,245.3 20.8,253.1 26.9,258.7 C35.6,266.7 47.7,267.6 52.5,267.6 C53.6,267.6 54.4,267.6 54.7,267.5 L358.2,267.5 C358.5,267.5 359.3,267.6 360.4,267.6 C365.2,267.6 377.3,266.7 386,258.7 C392.1,253.1 395.2,245.3 395.2,235.7 L395.2,170.6 L395.2,170.1 C394.8,165.6 395,151.3 400.9,144.8 C402.9,142.6 405.5,141.5 408.9,141.3 L409,141.3 L409.7,141.3 L413.4,141.3 L413.4,139.6 L413.4,131.3 L413.4,129 L413.4,126.3 L413.4,126.2 L409.7,126.2 L409.7,126.2 Z" id="Shape" sketch:type="MSShapeGroup"></path>
            <rect id="Rectangle-path" sketch:type="MSShapeGroup" x="0" y="128" width="6.2" height="10.6"></rect>
            <path d="M400.9,122.7 C394.9,116.1 394.8,101.9 395.2,97.4 L395.2,31.8 C395.2,22.2 392.1,14.4 386,8.8 C375.5,-0.9 359.8,-0.1 358.3,1.0658141e-14 L54.7,1.0658141e-14 C53.1,0 37.5,-0.8 27,8.8 C20.9,14.4 17.8,22.2 17.8,31.8 L17.8,96.7 C18.2,101.9 18.1,116.1 12.1,122.7 C10.1,124.9 7.5,126.1 4.1,126.2 C3.8,126.2 0,126.3 0,126.3 L0,127.7 L0,141.3 L3.2,141.3 C7.4,141.5 10,142.6 12,144.8 C18,151.3 18.1,165.6 17.7,170.1 L17.7,235.6 C17.7,245.2 20.8,253 26.9,258.6 C35.6,266.6 47.7,267.5 52.5,267.5 C53.6,267.5 54.4,267.5 54.7,267.4 L358.2,267.4 C358.5,267.4 359.3,267.5 360.4,267.5 C365.2,267.5 377.3,266.6 386,258.6 C392.1,253 395.2,245.2 395.2,235.6 L395.2,170.5 C394.8,165.5 395,151.2 400.9,144.7 C402.9,142.5 405.5,141.4 408.9,141.2 L413.4,141.2 L413.4,139.5 L413.4,131.2 L413.4,129 L413.4,126.3 L409.7,126.2 C405.5,126 402.9,124.9 400.9,122.7 Z M397.2,141.4 C388.5,150.9 390.2,170.4 390.2,170.6 L390.2,235.7 C390.2,243.9 387.6,250.4 382.6,255 C375.2,261.8 364.6,262.5 360.4,262.5 C359.2,262.5 358.5,262.4 358.5,262.4 L54.6,262.4 C54.4,262.4 53.7,262.5 52.5,262.5 C48.3,262.5 37.7,261.8 30.3,255 C25.3,250.4 22.7,243.8 22.7,235.7 L22.7,170.7 C22.7,170.4 24.4,151 15.7,141.4 C13.2,138.7 3.86018085,136.899993 0.0601808548,136.399993 L6.2,131 C10,130.4 13.3,128.8 15.8,126.1 C24.2,116.8 22.9,98.3 22.8,97 L22.8,31.9 C22.8,23.7 25.4,17.2 30.4,12.6 C39.6,4 53.8,5 54.4,5.1 L358.3,5.1 C359.1,5.1 373.3,4 382.6,12.6 C387.6,17.2 390.2,23.8 390.2,31.9 L390.2,96.7 C390.1,98.4 388.8,116.9 397.2,126.2 C399.8,129.1 403.2,130.7 407.2,131.2 L407.2,136.4 C403.1,136.9 399.8,138.5 397.2,141.4 Z" id="Shape" sketch:type="MSShapeGroup"></path>
        </g>
    </g>
</svg>